<?xml version="1.0" encoding="utf-8"?>
<!-- Generator: Adobe Illustrator 27.9.5, SVG Export Plug-In . SVG Version: 9.03 Build 54986)  -->
<svg version="1.1" id="Layer_1" xmlns="http://www.w3.org/2000/svg" xmlns:xlink="http://www.w3.org/1999/xlink" x="0px" y="0px"
	 viewBox="0 0 612 792" style="enable-background:new 0 0 612 792;" xml:space="preserve">
<style type="text/css">
	.st0{fill:#FEFEFD;}
	.st1{fill:#9FCD53;}
	.st2{fill:#4BAE49;}
	.st3{fill:#FFF200;}
</style>
<path class="st0" d="M549.47,396c0,74.51-0.09,149.02,0.17,223.54c0.02,6.12-1.23,7.36-7.35,7.35c-149.02-0.22-298.04-0.22-447.07,0
	c-6.12,0.01-7.36-1.23-7.35-7.35c0.22-149.02,0.22-298.05,0-447.07c-0.01-6.12,1.23-7.36,7.35-7.35
	c149.02,0.22,298.04,0.22,447.07,0c6.12-0.01,7.37,1.23,7.35,7.35C549.38,246.98,549.47,321.49,549.47,396z M318.74,589.33
	c1-1.77,1.65-2.59,1.96-3.52c12.55-36.92,59.29-49.24,87.57-27.06c1.23,0.96,2.45,2.84,4.36,1.82c3.21-1.71,1.71-4.86,1.7-7.36
	c-0.16-36.57,23.95-61.4,60.32-61.59c8.05-0.04,8.99-2.35,4.87-8.85c-7.58-11.94-10.69-24.96-8.31-39.11
	c4.01-23.75,17.75-39.25,41.79-47.42c-20.93-7.93-35.44-20.55-40.63-41.34c-5.03-20.14-0.48-38.62,14.88-56.25
	c-23.07,4.73-40.67-0.89-55.58-14.66c-15.34-14.16-18.44-32.99-17.5-54.52c-17.83,14.01-35.85,17.84-55.53,12.52
	c-20.32-5.49-32.18-20.01-39.93-40.08c-7.74,20.19-19.59,34.29-39.66,40.01c-20.07,5.72-38.16,1-55.52-12.21
	c0.79,48.83-22.83,71.95-70.17,71.1c26.76,38.8,12.24,79.39-27.94,95.63c20.18,7.01,34.21,19.7,39.53,40.19
	c5.18,19.95,1.31,38.27-13.95,55.28c21.87-1.99,40.56,1.44,55.29,16.43c14.72,14.98,19.18,33.43,15.99,54.89
	C257.71,534.72,303.8,547.7,318.74,589.33z"/>
<path class="st1" d="M318.74,589.33c-14.94-41.64-61.03-54.62-96.46-26.09c3.19-21.47-1.27-39.92-15.99-54.89
	c-14.74-14.99-33.42-18.43-55.29-16.43c15.26-17.01,19.13-35.33,13.95-55.28c-5.32-20.49-19.36-33.19-39.53-40.19
	c40.18-16.24,54.7-56.83,27.94-95.63c47.34,0.85,70.96-22.26,70.17-71.1c17.36,13.21,35.45,17.93,55.52,12.21
	c20.07-5.72,31.92-19.82,39.66-40.01c7.75,20.07,19.6,34.59,39.93,40.08c19.69,5.32,37.71,1.49,55.53-12.52
	c-0.93,21.53,2.17,40.36,17.5,54.52c14.92,13.77,32.52,19.39,55.58,14.66c-15.36,17.63-19.91,36.11-14.88,56.25
	c5.19,20.79,19.7,33.41,40.63,41.34c-24.04,8.17-37.78,23.66-41.79,47.42c-2.39,14.15,0.73,27.17,8.31,39.11
	c4.12,6.49,3.18,8.81-4.87,8.85c-36.38,0.19-60.48,25.02-60.32,61.59c0.01,2.5,1.51,5.65-1.7,7.36c-1.91,1.02-3.13-0.86-4.36-1.82
	c-28.28-22.19-75.02-9.87-87.57,27.06C320.39,586.75,319.74,587.57,318.74,589.33z M322,522.01
	c67.43-3.6,121.05-54.07,122.21-122.62c1.27-74.28-53.21-128.47-125.95-128.83c-69.13-0.34-125.21,53.7-124.98,125.73
	C193.5,467.16,248.75,521.36,322,522.01z"/>
<path class="st2" d="M322,522.01c-73.25-0.65-128.5-54.85-128.72-125.72c-0.23-72.02,55.86-126.07,124.98-125.73
	c72.74,0.36,127.22,54.55,125.95,128.83C443.04,467.94,389.43,518.41,322,522.01z M329.63,317.4c-0.66-0.14-1.33-0.27-1.99-0.41
	c-16.28,29.96-32.56,59.92-49.56,91.21c10.64,0,19.42,0.08,28.2-0.03c4.85-0.06,7.41,0.95,6.54,6.95
	c-1.46,10.11-1.97,20.35-2.77,30.55c-0.77,9.8-1.42,19.61-2.12,29.42c17.32-28.37,33.01-56.97,48.73-85.56
	c2.39-4.34,1.32-6.19-3.7-6.06c-6.82,0.17-13.67-0.29-20.46,0.19c-6.66,0.47-8.74-1.18-7.88-8.51
	C326.87,355.96,328.03,336.66,329.63,317.4z"/>
<path class="st3" d="M329.63,317.4c-1.6,19.26-2.75,38.56-5.01,57.74c-0.86,7.32,1.22,8.97,7.88,8.51
	c6.79-0.47,13.64-0.02,20.46-0.19c5.02-0.12,6.09,1.73,3.7,6.06c-15.73,28.58-31.42,57.19-48.73,85.56
	c0.7-9.81,1.34-19.62,2.12-29.42c0.8-10.19,1.31-20.44,2.77-30.55c0.86-6-1.69-7.01-6.54-6.95c-8.78,0.1-17.56,0.03-28.2,0.03
	c17-31.29,33.28-61.25,49.56-91.21C328.3,317.13,328.96,317.26,329.63,317.4z"/>
</svg>
